<?xml version="1.0" encoding="iso-8859-1"?>
<!-- Generator: Adobe Illustrator 19.0.0, SVG Export Plug-In . SVG Version: 6.00 Build 0)  -->
<svg version="1.1" id="Capa_1" xmlns="http://www.w3.org/2000/svg" xmlns:xlink="http://www.w3.org/1999/xlink" x="0px" y="0px"
	 viewBox="0 0 512 512" style="enable-background:new 0 0 512 512;" xml:space="preserve">
<g>
	<g>
		<g>
			<path d="M256,0C114.844,0,0,114.844,0,256s114.844,256,256,256s256-114.844,256-256S397.156,0,256,0z M256,490.667
				C126.604,490.667,21.333,385.396,21.333,256S126.604,21.333,256,21.333S490.667,126.604,490.667,256S385.396,490.667,256,490.667
				z"/>
			<path d="M286.708,307c4.792-3.188,7.146-9.094,5.885-14.635L287.844,271l16.646-14.281c4.198-3.625,5.854-9.385,4.229-14.677
				c-1.656-5.344-6.302-9.177-11.792-9.75l-21.031-2.333l-6.844-18.26c-4.063-10.781-21.896-10.927-26.115,0.021l-6.833,18.24
				l-20.969,2.333c-5.552,0.573-10.198,4.406-11.854,9.75c-1.625,5.292,0.031,11.052,4.25,14.698L224.156,271l-4.75,21.385
				c-1.229,5.573,1.135,11.448,6.042,14.719c2.271,1.458,4.896,2.229,7.583,2.229c2.219,0,6.292-1.313,8.104-2.604L256,296.115
				l14.896,10.635c1.802,1.281,5.875,2.583,8.083,2.583C281.083,309.333,284.958,308.167,286.708,307z M269.094,258.969
				c-2.99,2.563-4.323,6.563-3.469,10.406l1.958,8.802l-5.385-3.844c-1.854-1.323-4.021-1.99-6.198-1.99s-4.344,0.667-6.198,1.99
				l-5.385,3.844l1.958-8.802c0.854-3.844-0.479-7.844-3.469-10.406l-8.573-7.354l10.635-1.177c4-0.448,7.396-3.094,8.813-6.865
				l2.219-5.917l2.219,5.917c1.417,3.771,4.813,6.417,8.813,6.865l10.635,1.177L269.094,258.969z"/>
			<path d="M132.865,139.406l16.625,14.26l-4.75,21.385c-1.229,5.573,1.135,11.448,6.042,14.719
				c2.271,1.458,4.896,2.229,7.583,2.229c2.219,0,6.292-1.313,8.104-2.604l14.865-10.615l14.896,10.635
				c1.802,1.281,5.875,2.583,8.083,2.583c2.104,0,5.979-1.167,7.729-2.333c4.792-3.188,7.146-9.094,5.885-14.635l-4.75-21.365
				l16.646-14.281c4.198-3.625,5.854-9.385,4.229-14.677c-1.656-5.344-6.302-9.177-11.792-9.75l-21.031-2.333l-6.844-18.26
				c-4.063-10.781-21.896-10.927-26.115,0.021l-6.833,18.24l-20.969,2.333c-5.552,0.573-10.198,4.406-11.854,9.75
				C126.99,130,128.646,135.76,132.865,139.406z M170.302,133.104c4-0.448,7.396-3.094,8.813-6.865l2.219-5.917l2.219,5.917
				c1.417,3.771,4.813,6.417,8.813,6.865L203,134.281l-8.573,7.354c-2.99,2.563-4.323,6.563-3.469,10.406l1.958,8.802L187.531,157
				c-1.854-1.323-4.021-1.99-6.198-1.99c-2.177,0-4.344,0.667-6.198,1.99l-5.385,3.844l1.958-8.802
				c0.854-3.844-0.479-7.844-3.469-10.406l-8.573-7.354L170.302,133.104z"/>
			<path d="M282.198,139.406l16.625,14.26l-4.75,21.385c-1.229,5.573,1.135,11.448,6.042,14.719
				c2.271,1.458,4.896,2.229,7.583,2.229c2.219,0,6.292-1.313,8.104-2.604l14.865-10.615l14.896,10.635
				c1.802,1.281,5.875,2.583,8.083,2.583c2.104,0,5.979-1.167,7.729-2.333c4.792-3.188,7.146-9.094,5.885-14.635l-4.75-21.365
				l16.646-14.281c4.198-3.625,5.854-9.385,4.229-14.677c-1.656-5.344-6.302-9.177-11.792-9.75l-21.031-2.333l-6.844-18.26
				c-4.063-10.781-21.896-10.927-26.115,0.021l-6.833,18.24l-20.969,2.333c-5.552,0.573-10.198,4.406-11.854,9.75
				C276.323,130,277.979,135.76,282.198,139.406z M319.635,133.104c4-0.448,7.396-3.094,8.813-6.865l2.219-5.917l2.219,5.917
				c1.417,3.771,4.813,6.417,8.813,6.865l10.635,1.177l-8.573,7.354c-2.99,2.563-4.323,6.563-3.469,10.406l1.958,8.802L336.865,157
				c-1.854-1.323-4.021-1.99-6.198-1.99c-2.177,0-4.344,0.667-6.198,1.99l-5.385,3.844l1.958-8.802
				c0.854-3.844-0.479-7.844-3.469-10.406L309,134.281L319.635,133.104z"/>
			<path d="M222.26,349.625l-21.031-2.333l-6.844-18.26c-4.063-10.781-21.896-10.927-26.115,0.021l-6.833,18.24l-20.969,2.333
				c-5.552,0.573-10.198,4.406-11.854,9.75c-1.625,5.292,0.031,11.052,4.25,14.698l16.625,14.26l-4.75,21.385
				c-1.229,5.573,1.135,11.448,6.042,14.719c2.271,1.458,4.896,2.229,7.583,2.229c2.219,0,6.292-1.313,8.104-2.604l14.865-10.615
				l14.896,10.635c1.802,1.281,5.875,2.583,8.083,2.583c2.104,0,5.979-1.167,7.729-2.333c4.792-3.188,7.146-9.094,5.885-14.635
				l-4.75-21.365l16.646-14.281c4.198-3.625,5.854-9.385,4.229-14.677C232.396,354.031,227.75,350.198,222.26,349.625z
				 M194.427,376.302c-2.99,2.563-4.323,6.563-3.469,10.406l1.958,8.802l-5.385-3.844c-1.854-1.323-4.021-1.99-6.198-1.99
				c-2.177,0-4.344,0.667-6.198,1.99l-5.385,3.844l1.958-8.802c0.854-3.844-0.479-7.844-3.469-10.406l-8.573-7.354l10.635-1.177
				c4-0.448,7.396-3.094,8.813-6.865l2.219-5.917l2.219,5.917c1.417,3.771,4.813,6.417,8.813,6.865L203,368.948L194.427,376.302z"/>
			<path d="M371.594,349.625l-21.031-2.333l-6.844-18.26c-4.063-10.781-21.896-10.927-26.115,0.021l-6.833,18.24l-20.969,2.333
				c-5.552,0.573-10.198,4.406-11.854,9.75c-1.625,5.292,0.031,11.052,4.25,14.698l16.625,14.26l-4.75,21.385
				c-1.229,5.573,1.135,11.448,6.042,14.719c2.271,1.458,4.896,2.229,7.583,2.229c2.219,0,6.292-1.313,8.104-2.604l14.865-10.615
				l14.896,10.635c1.802,1.281,5.875,2.583,8.083,2.583c2.104,0,5.979-1.167,7.729-2.333c4.792-3.188,7.146-9.094,5.885-14.635
				l-4.75-21.365l16.646-14.281c4.198-3.625,5.854-9.385,4.229-14.677C381.729,354.031,377.083,350.198,371.594,349.625z
				 M343.76,376.302c-2.99,2.563-4.323,6.563-3.469,10.406l1.958,8.802l-5.385-3.844c-1.854-1.323-4.021-1.99-6.198-1.99
				c-2.177,0-4.344,0.667-6.198,1.99l-5.385,3.844l1.958-8.802c0.854-3.844-0.479-7.844-3.469-10.406L309,368.948l10.635-1.177
				c4-0.448,7.396-3.094,8.813-6.865l2.219-5.917l2.219,5.917c1.417,3.771,4.813,6.417,8.813,6.865l10.635,1.177L343.76,376.302z"/>
			<path d="M436.719,242.042c-1.656-5.344-6.302-9.177-11.792-9.75l-21.031-2.333l-6.844-18.26
				c-4.052-10.781-21.906-10.927-26.115,0.021l-6.833,18.24l-20.969,2.333c-5.552,0.573-10.198,4.406-11.854,9.75
				c-1.625,5.292,0.031,11.052,4.25,14.698L352.156,271l-4.75,21.385c-1.229,5.573,1.135,11.448,6.042,14.719
				c2.271,1.458,4.896,2.229,7.583,2.229c2.219,0,6.292-1.313,8.104-2.604L384,296.115l14.896,10.635
				c1.802,1.281,5.875,2.583,8.083,2.583c2.104,0,5.979-1.167,7.729-2.333c4.792-3.188,7.146-9.094,5.885-14.635L415.844,271
				l16.646-14.281C436.688,253.094,438.344,247.333,436.719,242.042z M397.094,258.969c-2.99,2.563-4.323,6.563-3.469,10.406
				l1.958,8.802l-5.385-3.844c-1.854-1.323-4.021-1.99-6.198-1.99c-2.177,0-4.344,0.667-6.198,1.99l-5.385,3.844l1.958-8.802
				c0.854-3.844-0.479-7.844-3.469-10.406l-8.573-7.354l10.635-1.177c4-0.448,7.396-3.094,8.813-6.865l2.219-5.917l2.219,5.917
				c1.417,3.771,4.813,6.417,8.813,6.865l10.635,1.177L397.094,258.969z"/>
			<path d="M142.896,306.75c1.802,1.281,5.875,2.583,8.083,2.583c2.104,0,5.979-1.167,7.729-2.333
				c4.792-3.188,7.146-9.094,5.885-14.635L159.844,271l16.646-14.281c4.198-3.625,5.854-9.385,4.229-14.677
				c-1.656-5.344-6.302-9.177-11.792-9.75l-21.031-2.333l-6.844-18.26c-4.052-10.781-21.906-10.927-26.115,0.021l-6.833,18.24
				l-20.969,2.333c-5.552,0.573-10.198,4.406-11.854,9.75c-1.625,5.292,0.031,11.052,4.25,14.698L96.156,271l-4.75,21.385
				c-1.229,5.573,1.135,11.448,6.042,14.719c2.271,1.458,4.896,2.229,7.583,2.229c2.219,0,6.292-1.313,8.104-2.604L128,296.115
				L142.896,306.75z M116.417,278.177l1.958-8.802c0.854-3.844-0.479-7.844-3.469-10.406l-8.573-7.354l10.635-1.177
				c4-0.448,7.396-3.094,8.813-6.865l2.219-5.917l2.219,5.917c1.417,3.771,4.813,6.417,8.813,6.865l10.635,1.177l-8.573,7.354
				c-2.99,2.563-4.323,6.563-3.469,10.406l1.958,8.802l-5.385-3.844c-1.854-1.323-4.021-1.99-6.198-1.99s-4.344,0.667-6.198,1.99
				L116.417,278.177z"/>
		</g>
	</g>
</g>
<g>
</g>
<g>
</g>
<g>
</g>
<g>
</g>
<g>
</g>
<g>
</g>
<g>
</g>
<g>
</g>
<g>
</g>
<g>
</g>
<g>
</g>
<g>
</g>
<g>
</g>
<g>
</g>
<g>
</g>
</svg>
