<svg id="Capa_1" enable-background="new 0 0 512 512" height="512" viewBox="0 0 512 512" width="512" xmlns="http://www.w3.org/2000/svg"><g><path d="m497 393.29v-274.58c8.729-3.096 15-11.433 15-21.21 0-12.407-10.094-22.5-22.5-22.5h-36.713l4.436-44.365c.782-7.817-1.793-15.643-7.064-21.468-5.272-5.826-12.802-9.167-20.659-9.167s-15.387 3.341-20.659 9.167c-5.271 5.825-7.847 13.65-7.064 21.467l4.436 44.366h-36.713c-12.406 0-22.5 10.093-22.5 22.5 0 2.628.453 5.153 1.285 7.5h-23.785c-1.989 0-3.896.79-5.304 2.197l-9.696 9.697-9.696-9.697c-1.407-1.407-3.314-2.197-5.304-2.197h-77c-1.989 0-3.896.79-5.304 2.197l-9.696 9.697-9.696-9.697c-1.407-1.407-3.314-2.197-5.304-2.197h-23.785c.832-2.347 1.285-4.872 1.285-7.5 0-12.407-10.094-22.5-22.5-22.5h-36.712l4.437-44.366c.781-7.818-1.794-15.643-7.066-21.468s-12.803-9.166-20.659-9.166c-7.857 0-15.387 3.341-20.659 9.167-5.271 5.825-7.847 13.65-7.064 21.467l4.436 44.366h-36.713c-12.406 0-22.5 10.093-22.5 22.5 0 9.777 6.271 18.114 15 21.21v274.58c-8.729 3.096-15 11.433-15 21.21 0 12.407 10.094 22.5 22.5 22.5h36.713l-4.436 44.365c-.782 7.817 1.793 15.643 7.064 21.468 5.272 5.826 12.802 9.167 20.659 9.167s15.387-3.341 20.659-9.167c5.271-5.825 7.847-13.65 7.064-21.467l-4.436-44.366h36.713c12.406 0 22.5-10.093 22.5-22.5 0-2.628-.453-5.153-1.285-7.5h23.785c1.989 0 3.896-.79 5.304-2.197l9.696-9.697 9.696 9.697c1.407 1.407 3.314 2.197 5.304 2.197h77c1.989 0 3.896-.79 5.304-2.197l9.696-9.697 9.696 9.697c1.407 1.407 3.314 2.197 5.304 2.197h23.785c-.832 2.347-1.285 4.872-1.285 7.5 0 12.407 10.094 22.5 22.5 22.5h36.713l-4.436 44.365c-.782 7.817 1.793 15.643 7.064 21.468 5.272 5.826 12.802 9.167 20.659 9.167s15.387-3.341 20.659-9.167c5.271-5.825 7.847-13.65 7.064-21.467l-4.436-44.366h36.713c12.406 0 22.5-10.093 22.5-22.5 0-9.777-6.271-18.114-15-21.21zm-120-1.29v-272h105v272zm39.702-362.858c-.366-3.662.792-7.181 3.261-9.91 2.47-2.729 5.856-4.232 9.537-4.232s7.067 1.503 9.537 4.232c2.469 2.729 3.627 6.248 3.261 9.91l-4.586 45.858h-16.425zm-47.202 60.858h120c4.136 0 7.5 3.364 7.5 7.5s-3.364 7.5-7.5 7.5h-120c-4.136 0-7.5-3.364-7.5-7.5s3.364-7.5 7.5-7.5zm-299.798-60.858c-.366-3.662.792-7.181 3.261-9.91 2.47-2.729 5.856-4.232 9.537-4.232s7.067 1.503 9.537 4.231c2.47 2.729 3.628 6.249 3.262 9.91l-4.586 45.859h-16.425zm-47.202 60.858h120c4.136 0 7.5 3.364 7.5 7.5s-3.364 7.5-7.5 7.5h-120c-4.136 0-7.5-3.364-7.5-7.5s3.364-7.5 7.5-7.5zm72.798 392.858c.366 3.662-.792 7.181-3.261 9.91-2.47 2.729-5.856 4.232-9.537 4.232s-7.067-1.503-9.537-4.232c-2.469-2.729-3.627-6.248-3.261-9.91l4.586-45.858h16.425zm47.202-60.858h-120c-4.136 0-7.5-3.364-7.5-7.5s3.364-7.5 7.5-7.5h120c4.136 0 7.5 3.364 7.5 7.5s-3.364 7.5-7.5 7.5zm185.106-30-12.803-12.803c-2.93-2.929-7.678-2.929-10.607 0l-12.802 12.803h-70.787l-12.803-12.803c-2.93-2.929-7.678-2.929-10.607 0l-12.803 12.803h-34.394v-121c0-4.142-3.357-7.5-7.5-7.5s-7.5 3.358-7.5 7.5v121h-105v-272h105v121c0 4.142 3.357 7.5 7.5 7.5s7.5-3.358 7.5-7.5v-121h34.394l12.803 12.803c2.93 2.929 7.678 2.929 10.607 0l12.802-12.803h70.787l12.803 12.803c1.465 1.464 3.385 2.197 5.304 2.197s3.839-.732 5.304-2.197l12.802-12.803h34.394v272zm114.692 90.858c.366 3.662-.792 7.181-3.261 9.91-2.47 2.729-5.856 4.232-9.537 4.232s-7.067-1.503-9.537-4.232c-2.469-2.729-3.627-6.248-3.261-9.91l4.586-45.858h16.425zm47.202-60.858h-120c-4.136 0-7.5-3.364-7.5-7.5s3.364-7.5 7.5-7.5h120c4.136 0 7.5 3.364 7.5 7.5s-3.364 7.5-7.5 7.5z"/><path d="m241 173.5h-68.5c-4.143 0-7.5 3.358-7.5 7.5s3.357 7.5 7.5 7.5h68.5c4.143 0 7.5-3.358 7.5-7.5s-3.357-7.5-7.5-7.5z"/><path d="m241 203.5h-68.5c-4.143 0-7.5 3.358-7.5 7.5s3.357 7.5 7.5 7.5h68.5c4.143 0 7.5-3.358 7.5-7.5s-3.357-7.5-7.5-7.5z"/><path d="m241 233.5h-68.5c-4.143 0-7.5 3.358-7.5 7.5s3.357 7.5 7.5 7.5h68.5c4.143 0 7.5-3.358 7.5-7.5s-3.357-7.5-7.5-7.5z"/><path d="m271 188.5h68.5c4.143 0 7.5-3.358 7.5-7.5s-3.357-7.5-7.5-7.5h-68.5c-4.143 0-7.5 3.358-7.5 7.5s3.357 7.5 7.5 7.5z"/><path d="m339.5 203.5h-68.5c-4.143 0-7.5 3.358-7.5 7.5s3.357 7.5 7.5 7.5h68.5c4.143 0 7.5-3.358 7.5-7.5s-3.357-7.5-7.5-7.5z"/><path d="m339.5 233.5h-68.5c-4.143 0-7.5 3.358-7.5 7.5s3.357 7.5 7.5 7.5h68.5c4.143 0 7.5-3.358 7.5-7.5s-3.357-7.5-7.5-7.5z"/><path d="m241 263.5h-68.5c-4.143 0-7.5 3.358-7.5 7.5s3.357 7.5 7.5 7.5h68.5c4.143 0 7.5-3.358 7.5-7.5s-3.357-7.5-7.5-7.5z"/><path d="m241 293.5h-68.5c-4.143 0-7.5 3.358-7.5 7.5s3.357 7.5 7.5 7.5h68.5c4.143 0 7.5-3.358 7.5-7.5s-3.357-7.5-7.5-7.5z"/><path d="m241 323.5h-68.5c-4.143 0-7.5 3.358-7.5 7.5s3.357 7.5 7.5 7.5h68.5c4.143 0 7.5-3.358 7.5-7.5s-3.357-7.5-7.5-7.5z"/><path d="m339.5 263.5h-68.5c-4.143 0-7.5 3.358-7.5 7.5s3.357 7.5 7.5 7.5h68.5c4.143 0 7.5-3.358 7.5-7.5s-3.357-7.5-7.5-7.5z"/><path d="m339.5 293.5h-68.5c-4.143 0-7.5 3.358-7.5 7.5s3.357 7.5 7.5 7.5h68.5c4.143 0 7.5-3.358 7.5-7.5s-3.357-7.5-7.5-7.5z"/><path d="m339.5 323.5h-68.5c-4.143 0-7.5 3.358-7.5 7.5s3.357 7.5 7.5 7.5h68.5c4.143 0 7.5-3.358 7.5-7.5s-3.357-7.5-7.5-7.5z"/></g></svg>