<svg id="Capa_1" enable-background="new 0 0 512 512" height="512" viewBox="0 0 512 512" width="512" xmlns="http://www.w3.org/2000/svg"><path d="m242.692 295.989c2.929-2.929 2.93-7.677.001-10.606-2.885-2.886-4.474-6.722-4.474-10.801v-9.665c0-4.143-3.358-7.5-7.5-7.5s-7.5 3.357-7.5 7.5v9.665c0 8.085 3.148 15.688 8.866 21.406 2.929 2.93 7.678 2.93 10.607.001z"/><path d="m281.272 257.417c-4.142 0-7.5 3.357-7.5 7.5v9.665c0 4.079-1.589 7.915-4.474 10.801-2.929 2.929-2.928 7.678 0 10.606 2.93 2.928 7.678 2.929 10.607-.001 5.718-5.718 8.867-13.32 8.867-21.406v-9.665c0-4.143-3.357-7.5-7.5-7.5z"/><path d="m231.628 212.487c4.142 0 7.5-3.357 7.5-7.5v-18.75c0-7.006-2.729-13.593-7.682-18.546l-28.456-28.456c-2.929-2.928-7.678-2.928-10.606 0-2.929 2.93-2.929 7.678 0 10.607l28.457 28.456c2.12 2.12 3.288 4.939 3.288 7.938v18.75c-.001 4.144 3.357 7.501 7.499 7.501z"/><path d="m319.608 149.843c2.929-2.93 2.929-7.678 0-10.607-2.929-2.928-7.678-2.928-10.606 0l-28.456 28.456c-4.954 4.953-7.683 11.54-7.683 18.546v18.75c0 4.143 3.358 7.5 7.5 7.5s7.5-3.357 7.5-7.5v-18.75c0-2.999 1.168-5.818 3.289-7.938z"/><path d="m417.277 301.937c-37.928-9.247-34.827-8.445-35.539-8.757l-10.126-10.938c-10.862-11.734-23.249-21.828-36.898-30.079 1.399-3.791 2.147-7.856 2.147-12.037v-36.08c10.496 11.429 25.553 18.513 42.075 18.513h16.723c4.142 0 7.5-3.357 7.5-7.5v-16.723c0-30.059-23.359-54.766-52.878-56.921-.272-2.308-.692-4.124-1.267-6.128-.438-1.524.694-3.053 2.313-3.053 2.713 0 5.149-1.208 6.8-3.113h33.534c39.342 0 71.35-32.007 71.35-71.35v-50.271c0-4.143-3.358-7.5-7.5-7.5h-4.567c-25.498 0-46.242 20.744-46.242 46.242v11.53c0 7.19-5.85 13.04-13.041 13.04h-33.534c-1.65-1.906-4.087-3.113-6.8-3.113h-38.721c-16.771 0-30.564 12.99-31.844 29.438h-5.514c-7.551 0-14.381 3.145-19.25 8.193-4.869-5.048-11.699-8.193-19.25-8.193h-5.514c-1.28-16.448-15.073-29.438-31.844-29.438h-38.721c-2.713 0-5.149 1.208-6.8 3.113h-33.534c-7.19 0-13.041-5.85-13.041-13.04v-11.53c.004-25.498-20.74-46.242-46.238-46.242h-4.567c-4.142 0-7.5 3.357-7.5 7.5v50.272c0 24.597 12.421 47.147 33.228 60.322 3.5 2.217 8.133 1.175 10.349-2.324 2.216-3.5 1.175-8.133-2.324-10.35-16.439-10.407-26.253-28.22-26.253-47.648v-42.635c15.858 1.482 28.31 14.867 28.31 31.105v11.53c0 15.461 12.579 28.04 28.041 28.04h31.339v28.31h-31.34c-4.142 0-7.5 3.357-7.5 7.5s3.358 7.5 7.5 7.5h33.534c1.65 1.906 4.087 3.113 6.8 3.113 1.584 0 2.726 1.51 2.304 3.037-.039.14-.074.278-.106.415-.544 1.895-.935 3.809-1.161 5.728-29.518 2.156-52.876 26.863-52.876 56.921v16.723c0 4.143 3.358 7.5 7.5 7.5h16.722c16.522 0 31.579-7.084 42.075-18.514v36.08c0 4.182.748 8.249 2.149 12.041-13.647 8.251-26.032 18.344-36.891 30.076l-10.236 11.056-35.428 8.638c-31.442 7.665-53.401 35.621-53.401 67.987 0 17.553 6.501 34.323 18.082 47.215-11.454 10.418-18.082 25.187-18.082 41.001v46.36c0 4.143 3.358 7.5 7.5 7.5h414.355c4.142 0 7.5-3.357 7.5-7.5v-11.36c0-4.143-3.358-7.5-7.5-7.5s-7.5 3.357-7.5 7.5v3.861h-66.657v-80.25c0-4.143-3.358-7.5-7.5-7.5s-7.5 3.357-7.5 7.5v80.25h-110.522v-79.188c0-13.542 11.017-24.559 24.559-24.559h66.143c4.142 0 7.5-3.357 7.5-7.5s-3.358-7.5-7.5-7.5h-66.143c-13.174 0-24.865 6.474-32.059 16.408-7.193-9.934-18.884-16.408-32.059-16.408h-66.143c-4.142 0-7.5 3.357-7.5 7.5s3.358 7.5 7.5 7.5h66.143c13.542 0 24.559 11.017 24.559 24.559v79.188h-110.521v-80.25c0-4.143-3.358-7.5-7.5-7.5s-7.5 3.357-7.5 7.5v80.25h-66.657v-38.86c0-13.814 6.93-26.534 18.538-34.025 4.203-2.712 4.623-8.719.825-11.987-12.305-10.588-19.362-25.971-19.362-42.207 0-25.425 17.252-47.389 41.954-53.41l33.524-8.174 16.284 16.285c2.93 2.929 7.678 2.928 10.606 0 2.929-2.93 2.929-7.678 0-10.607l-14.163-14.164c9.659-10.433 20.387-22.754 40.874-35.065 4.035 3.997 7.474 5.634 11.087 7.578-3.927 6.351-5.999 13.709-5.921 21.293.221 21.685 18.352 39.325 40.418 39.325h50.02c4.142 0 7.5-3.357 7.5-7.5s-3.358-7.5-7.5-7.5h-50.02c-13.878 0-25.281-10.98-25.419-24.478-.063-6.188 2.169-12.132 6.286-16.737 1.229-1.375 1.908-3.154 1.908-4.998v-2.663c0-2.76-1.516-5.296-3.945-6.604l-9.312-5.012c-6.385-3.437-10.374-10.085-10.374-17.363v-68.14c0-1.79-.641-3.521-1.806-4.881l-6.843-7.983c-2.697-3.146-4.348-6.947-4.852-10.922-.014-.191-.036-.38-.064-.567-.318-3.223.121-5.648.868-8.366 2.496-9.03-2.577-17.984-10.756-20.977v-35.592h32.715c8.491 0 15.543 6.279 16.756 14.438h-18.463c-4.142 0-7.5 3.357-7.5 7.5s3.358 7.5 7.5 7.5h39.064c6.479 0 11.75 5.271 11.75 11.75v31.586c0 4.143 3.358 7.5 7.5 7.5s7.5-3.357 7.5-7.5c0-8.522 0-24.408 0-31.587 0-6.479 5.271-11.749 11.75-11.749h39.064c4.142 0 7.5-3.357 7.5-7.5s-3.358-7.5-7.5-7.5h-18.463c1.213-8.159 8.265-14.438 16.756-14.438h32.715v35.585c-8.217 2.994-13.342 12.035-10.725 21.145.776 2.701 1.127 5.263.817 8.282-.02.139-.035.28-.047.421-.494 4.003-2.152 7.834-4.866 11.002l-6.833 7.972c-1.165 1.359-1.806 3.091-1.806 4.881v68.14c0 7.166-3.893 13.875-10.374 17.363l-9.312 5.012c-2.43 1.309-3.945 3.845-3.945 6.604v2.663c0 1.844.679 3.623 1.908 4.998 6.612 7.398 8.296 18.287 3.689 27.354-1.876 3.693-.403 8.208 3.29 10.084s8.208.404 10.083-3.29c6.391-12.579 5.304-27.225-1.699-38.551 4.019-2.162 7.16-3.687 11.091-7.581 12.59 7.565 24.01 16.846 34.012 27.65l7.276 7.86-13.723 13.723c-2.929 2.929-2.929 7.678 0 10.606s7.678 2.929 10.606-.001l16.117-16.118 32.842 8.007c24.702 6.022 41.954 27.985 41.954 53.415 0 16.232-7.058 31.615-19.362 42.203-3.792 3.263-3.386 9.271.825 11.987 11.608 7.491 18.538 20.211 18.538 34.025 0 4.143 3.358 7.5 7.5 7.5s7.5-3.357 7.5-7.5c0-15.814-6.628-30.583-18.082-41.001 11.581-12.892 18.082-29.663 18.082-47.219.001-32.363-21.959-60.318-53.4-67.983zm-284.222-94.377h-9.222v-9.223c0-22.263 17.38-40.542 39.285-41.982 1.432 4.531 3.776 8.798 6.975 12.529l4.216 4.918c-3.889 19.454-21.091 33.758-41.254 33.758zm255.104-9.223v9.223h-9.223c-20.163 0-37.364-14.303-41.253-33.757l4.207-4.907c3.201-3.735 5.548-8.006 6.981-12.541 21.906 1.438 39.288 19.718 39.288 41.982zm31.543-140.565v-11.53c0-16.238 12.452-29.623 28.31-31.105v42.636c0 31.071-25.278 56.35-56.35 56.35h-31.34v-28.31h31.339c15.462 0 28.041-12.58 28.041-28.041z"/></svg>